<svg width="166" height="190" viewBox="0 0 166 190" fill="none" xmlns="http://www.w3.org/2000/svg">
<rect width="166" height="190" fill="#1E1E1E"/>
<g style="mix-blend-mode:color-dodge">
<path d="M79.1029 47.75L1.1606 182.75C-0.571457 185.75 1.59361 189.5 5.05771 189.5L160.942 189.5C164.406 189.5 166.571 185.75 164.839 182.75L86.8971 47.75C85.1651 44.75 80.8349 44.75 79.1029 47.75Z" fill="#5383E1"/>
<path d="M79.1029 47.75L1.1606 182.75C-0.571457 185.75 1.59361 189.5 5.05771 189.5L160.942 189.5C164.406 189.5 166.571 185.75 164.839 182.75L86.8971 47.75C85.1651 44.75 80.8349 44.75 79.1029 47.75Z" stroke="#2B5BB9"/>
</g>
<g style="mix-blend-mode:screen" opacity="0.9">
<path d="M87.3301 2.49999C85.4056 -0.83334 80.5944 -0.833334 78.6699 2.5L0.727584 137.5C-1.19692 140.833 1.20871 145 5.05771 145L160.942 145C164.791 145 167.197 140.833 165.272 137.5L87.3301 2.49999Z" fill="#644781"/>
</g>
</svg>
