<?xml version="1.0" standalone="yes"?>
<svg xmlns="http://www.w3.org/2000/svg" width="1770" height="535">
<path style="fill:#01010100; stroke:none;" d="M0 0L0 535L1770 535L1770 0L0 0z"/>
<path style="fill:#ff5355; stroke:none;" d="M1217 85C1193.95 87.9125 1173.44 93.7468 1154 107.029C1070.37 164.183 1066.84 301.626 1148 362.625C1163.39 374.192 1181.05 383.026 1200 386.8C1215.67 389.921 1232.18 390.335 1248 388.13C1362.97 372.11 1399.96 221.038 1333.79 137C1320.86 120.585 1302.87 104.004 1283 96.4676C1273.91 93.0186 1261.98 100.275 1268.18 110.787C1271.44 116.32 1281.73 118.916 1287 122.345C1306.4 134.961 1321.88 152.27 1332.24 173C1357.47 223.452 1349.73 288.888 1311.83 331C1261.04 387.433 1176.03 377.583 1133.72 317C1123.18 301.914 1116.02 284.008 1112.4 266C1107.49 241.584 1108.72 216.784 1116.34 193C1127.24 158.988 1151.27 127.388 1185 113.603C1195.99 109.114 1207.18 106.295 1219 105.17C1224.42 104.654 1231.47 106.462 1235.49 101.772C1238.84 97.8469 1238 91.7812 1238 87L1238 54C1251.19 56.4478 1264.18 57.6833 1277 62.0787C1315.75 75.3639 1349.32 104.608 1369.57 140C1420.66 229.265 1394.74 356.571 1299 405.244C1284.96 412.38 1270.61 417.942 1255 420.565C1237.4 423.524 1219.61 423.808 1202 420.75C1084.25 400.299 1030.57 262.085 1075.42 159C1087.25 131.828 1105.82 107.893 1129 89.4498C1136.95 83.122 1159.91 74.3355 1159.91 63C1159.91 41.3745 1131.32 62.5401 1124 66L1108.67 42L1101.91 34.8812L1084 45.3333L1037 77C1035.07 73.1234 1031.1 69.3439 1030.44 65C1029.77 60.6522 1031.95 56.3732 1030.26 52.0038C1026.61 42.5811 1011.39 42.5811 1007.74 52.0038C1002.2 66.3144 1017.7 66.0908 1023.33 74.0193C1026.06 77.8666 1030.21 88.0867 1035.18 89.169C1039.66 90.1439 1046.52 83.3302 1050 80.9992C1062.08 72.9032 1073.94 64.4606 1086 56.3303C1089.2 54.1711 1094.76 48.3339 1098.91 48.8712C1106.03 49.7933 1111.88 66.307 1117 71L1117 72C1094.67 87.2658 1075.79 111.979 1063.75 136C1060.07 143.339 1055.41 150.829 1054 159L1030 150L1041 119C1029.55 112.319 1014.66 109.032 1004.15 101.031C998.685 96.8721 1000.47 88.7602 992 87.2284C979.876 85.0356 970.835 100.164 981.109 108.566C986.855 113.266 992.815 108.885 999 110.175C1009.18 112.299 1019.38 119.993 1029 124L1018 156L1050 168C1037.86 205.304 1034.3 245.481 1042.88 284C1045.71 296.665 1049.34 308.962 1054.2 321C1056.18 325.904 1061.59 333.35 1061.43 338.674C1061.32 342.531 1053.75 345.9 1051 347.859C1044.31 352.626 1035.89 360.948 1028 363.322C1021.34 365.325 1014.93 360.394 1009.43 367.109C1001.29 377.061 1012.42 390.741 1024 386.258C1030.69 383.667 1029.7 376.702 1034.15 372.326C1043.83 362.793 1057.33 356.459 1068 348C1074.55 365.304 1092.41 387.251 1108 397L1108 398C1103.54 401.142 1099.85 405.146 1096 409C1092.4 412.603 1084.62 417.889 1083.35 423C1082.24 427.416 1089.32 432.324 1092 435L1115 458C1117.39 460.391 1122.94 464.247 1122.94 468C1122.94 484.527 1096.81 477.721 1093.43 490.001C1090.87 499.348 1097.57 506.895 1107 505.89C1118.27 504.69 1114.45 494.501 1119.32 488C1122.85 483.284 1138.26 473.438 1136.65 467C1135.7 463.175 1130.67 459.665 1128 457L1106 435C1103.42 432.421 1097.06 428.029 1097.06 424C1097.06 419.972 1103.42 415.577 1106 413C1108.29 410.714 1110.88 407.188 1114 406.033C1118.29 404.449 1123.76 410.452 1127 412.656C1137.85 420.027 1149.77 426.435 1162 431.189C1194.32 443.751 1237.44 449.365 1271 438C1274.55 448.494 1279.09 458.714 1283.2 469C1284.41 472.017 1285.65 478.162 1289.22 479.211C1295.91 481.173 1311.82 470.926 1318 468L1321 476C1304.05 481.735 1287.46 491.046 1270.09 495.276C1264.74 496.579 1259.64 492.559 1254 494.742C1247.97 497.079 1245.81 504.085 1247.43 509.999C1251.39 524.411 1270.69 517.982 1271 505C1286.36 502.355 1302.5 493.762 1317 488C1320.96 486.426 1329.46 484.996 1331.93 481.301C1334.16 477.977 1330.28 472.096 1329.01 469C1327.64 465.667 1326.57 459.116 1323.35 457.071C1317.82 453.556 1298.81 465.745 1293 468L1291 461L1339 443C1344.62 457.482 1353.29 472.844 1356.62 488C1358.04 494.453 1352.47 500.47 1356.74 506.956C1365.01 519.5 1384.78 507.487 1377.82 494.015C1375.33 489.192 1370.06 489.435 1366.99 485.686C1362.92 480.712 1361.04 472.038 1359 466C1368.45 462.064 1377.91 454.695 1388 452.623C1394.55 451.278 1400.62 456.696 1406.89 451.566C1417.16 443.164 1408.12 428.036 1396 430.228C1388.36 431.61 1389.1 438.957 1383.85 442.648C1375.15 448.776 1364.21 451.757 1355 457L1344.3 432.071L1329 436.189L1287 453L1281 435C1296.06 432.744 1312.42 422.881 1325 414.656C1363.69 389.354 1391.72 350.806 1406 307C1408.78 308.072 1414.42 309.173 1415.59 312.278C1416.91 315.764 1413.26 321.766 1412.05 325L1399.32 359C1397.98 362.632 1392.63 371.629 1395.07 375.298C1398 379.692 1408.37 380.48 1412.94 382.8C1421.25 387.023 1419.2 400.354 1433 396.566C1443.29 393.742 1443.83 377.551 1434 373.742C1429.23 371.897 1424.75 374.229 1420 374.107C1415.25 373.986 1410.53 371.237 1406 370C1410.27 354.371 1417.39 339.183 1423.05 324C1424.63 319.775 1430.01 310.905 1428.3 306.419C1426.6 301.936 1413.32 299.024 1409 298C1423.6 227.221 1414.53 157.252 1366.92 100C1353.84 84.2757 1334.1 63.3629 1314 57L1340 30L1341 30C1344.63 34.5034 1358.92 42.2213 1358.95 48.0394C1358.98 55.6827 1345.79 59.6036 1344.92 67C1344.5 70.5967 1348.8 73.7379 1350.99 76C1357.76 82.9963 1366.58 97.5804 1376 100.824C1380.86 102.497 1385.9 95.0821 1388.58 92C1395.75 83.738 1402.23 78.9357 1391 71L1391 70L1401 59L1402 59C1406.67 64.7931 1412.76 69.668 1418 75C1422.88 79.9734 1424.79 89.5875 1432 91.5663C1443.34 94.6808 1453.51 81.8161 1445.57 72.1088C1439.3 64.4514 1428.59 70.6008 1421 63.8287C1416.77 60.0529 1406.34 44.9831 1400 47.1759C1394.76 48.9883 1380.02 64.522 1379.18 70C1378.58 73.8647 1382.94 75.6521 1383.79 79C1384.7 82.5421 1379.85 86.3644 1378 89L1377 89L1356 68C1366.12 57.875 1374.75 45.6732 1385.58 36.3179C1389.58 32.8589 1395.03 33.8555 1398.26 28.956C1404.86 18.9442 1394.86 7.4505 1384 10.4337C1369.9 14.3061 1382.9 36.2138 1368 38.3727C1357.98 39.824 1349.13 15.6842 1339 19.1759C1325.53 23.8211 1319.18 46.8907 1305.42 50.3349C1300.8 51.4922 1291.52 45.1907 1287 43.6674C1271.4 38.4109 1254.56 34.2009 1238 34.0038C1232.99 33.9442 1225.45 32.676 1221.13 35.7423C1216.53 39.0168 1217 45.008 1217 50L1217 85z"/>
<path style="fill:#010101; stroke:none;" d="M1385.15 17.0324C1378.75 20.6821 1384.43 30.6298 1390.85 26.9676C1397.25 23.3179 1391.57 13.3702 1385.15 17.0324z"/>
<path style="fill:#ff0e21; stroke:none;" d="M1347 23L1348 24L1347 23M1344 33L1345 34L1344 33M1360 34L1361 35L1360 34M1386 34L1387 35L1386 34M1091 40L1092 41L1091 40z"/>
<path style="fill:#ff5355; stroke:none;" d="M1175.1 40.7423C1162.51 46.0853 1172.7 66.0362 1184.98 61.2569C1198.12 56.1483 1188.83 34.9207 1175.1 40.7423z"/>
<path style="fill:#ff0e21; stroke:none;" d="M1357 44L1358 45L1357 44M1376 45L1377 46L1376 45z"/>
<path style="fill:#010101; stroke:none;" d="M1016.15 52.0324C1009.75 55.6822 1015.43 65.6297 1021.85 61.9676C1028.25 58.3177 1022.57 48.3703 1016.15 52.0324z"/>
<path style="fill:#ff0e21; stroke:none;" d="M1075 51L1076 52L1075 51M1092 51L1093 52L1092 51M1115 52L1116 53L1115 52M1104 53L1105 54L1104 53M1392 54L1393 55L1392 54M1366 56L1367 57L1366 56M1076 62L1077 63L1076 62M1405 62L1406 63L1405 62M1056 64L1057 65L1056 64M1422 65L1423 66L1422 65M1394 66L1395 67L1394 66M1356 67L1357 68L1356 67M1379 68L1380 69L1379 68M1020 69L1021 70L1020 69M1033 71L1034 72L1033 71z"/>
<path style="fill:#010101; stroke:none;" d="M1433.15 75.0324C1426.75 78.6822 1432.43 88.6297 1438.85 84.9676C1445.25 81.3177 1439.57 71.3704 1433.15 75.0324z"/>
<path style="fill:#ff0e21; stroke:none;" d="M1040 75L1041 76L1040 75M1057 75L1058 76L1057 75M1353 78L1354 79L1353 78M1354 79L1355 80L1354 79M1399 79L1400 80L1399 79M1355 80L1356 81L1355 80M1041 86L1042 87L1041 86M1389 90L1390 91L1389 90z"/>
<path style="fill:#010101; stroke:none;" d="M986.148 94.0324C979.75 97.6822 985.432 107.63 991.852 103.968C998.25 100.318 992.568 90.3703 986.148 94.0324z"/>
<path style="fill:#ff0e21; stroke:none;" d="M1029 113L1030 114L1029 113z"/>
<path style="fill:#ff1747; stroke:none;" d="M1195 360C1205.07 359.881 1204.87 350.168 1207.17 342C1210.11 331.578 1214.48 319.84 1214.96 309C1215.26 302.198 1212.52 290.221 1216.02 284.224C1219.36 278.514 1231.2 274.227 1236.99 271.615C1253.29 264.258 1268.78 251.96 1286 247L1285.4 222.214L1272.99 214L1239 197C1250.61 190.583 1262.36 184.508 1274 178.136C1277.49 176.227 1284.45 173.94 1285.68 169.787C1287 165.337 1287.5 152.395 1284.82 148.499C1282.15 144.621 1273.26 141.773 1269 139.95C1258.73 135.552 1248.33 130.224 1238.42 125C1231.4 121.292 1218.06 111.622 1210 115.282C1206.25 116.984 1197.39 121.592 1195.6 125.39C1193.67 129.497 1195 136.54 1195 141L1195 178L1195 360z"/>
<path style="fill:#ff0e21; stroke:none;" d="M1225 118L1226 119L1225 118M1203 119L1204 120L1203 119M1227 119L1228 120L1227 119z"/>
<path style="fill:#ffffff; stroke:none;" d="M390 230L390 175C390 167.051 388.262 156.778 390.318 149.09C391.375 145.134 395.461 143.033 396.566 138.999C398.401 132.305 395.295 124.548 388 123.228C381.003 121.963 373.915 125.44 373.11 133C372.313 140.475 378.349 144.164 378.941 151C380.704 171.337 379 192.58 379 213C379 219.042 376.217 234.733 380.742 239.258C385.046 243.561 399.292 241 405 241C424.104 241 443.974 239.41 463 241.059C470.208 241.683 474.003 248.218 482 246.772C489.036 245.499 491.951 238.52 490.772 232C489.452 224.705 481.695 221.599 475.001 223.434C470.967 224.539 468.866 228.625 464.91 229.682C457.796 231.584 448.352 230 441 230L390 230M150.004 125.742C134.735 131.657 147.67 144.083 151.501 151.209C154.555 156.89 155.904 163.958 158.192 170C175.199 214.905 191.299 260.508 206.667 306C210.973 318.745 215.778 331.333 220.308 344C221.783 348.124 223.83 355.623 229.891 353.377C235.743 351.209 232.485 344.01 231.05 340C226.287 326.691 221.798 313.276 216.947 300C200.677 255.476 184.305 210.866 169.003 166C167.243 160.838 163.646 154.637 163.354 149.17C163.177 145.846 166.194 143.249 166.772 139.999C168.542 130.038 159.884 121.915 150.004 125.742M251 330C233.07 289.55 223.15 244.702 208.308 203C204.762 193.036 201.487 182.985 197.996 173.001C196.624 169.076 194.178 164.51 189.147 166.608C184.163 168.687 186.798 175.338 188.001 179C191.728 190.349 195.556 201.667 199.333 213C213.344 255.032 227.657 296.962 241.667 339C242.67 342.01 244.634 345.781 243.662 349C241.748 355.339 236.42 359.703 240.179 366.985C249.642 385.317 276.047 359.58 256 350C265.807 327.877 272.408 303.859 280.344 281C292.156 246.975 304.386 213.094 316.003 179C318.922 170.434 321.177 160.001 325.558 152.104C328.165 147.405 333.725 145.785 334.772 140C336.486 130.519 329.481 123.514 320 125.228C305.328 127.882 314.359 140.883 314.089 149C313.814 157.27 308.045 167.219 305.344 175C287.574 226.187 272.95 280.482 251 330z"/>
<path style="fill:#ff0e21; stroke:none;" d="M1238 125L1239 126L1238 125z"/>
<path style="fill:#ffffff; stroke:none;" d="M1459 169C1475.18 193.007 1489.69 218.314 1504.81 243C1514.63 259.029 1524.52 275.021 1534.42 291L1566.58 343C1568.95 346.826 1576.73 360.869 1581.96 351.772C1584.4 347.53 1579.9 342.41 1577.81 339C1571.47 328.646 1565.15 318.272 1558.68 308C1531.56 264.936 1505.38 221.263 1478.58 178C1473.35 169.562 1465.45 160.32 1462.06 151C1460.57 146.897 1464.08 143.893 1464.77 140C1466.49 130.254 1458.75 122.756 1449 125.434C1443.21 127.022 1440.78 132.411 1441.05 138C1441.33 143.845 1446.32 145.981 1447.68 151.09C1450.35 161.073 1448 174.663 1448 185L1448 320C1448 328.738 1449.7 339.49 1447.69 348C1446.11 354.676 1440.33 359.523 1444.18 366.985C1449.27 376.849 1465.7 374.164 1466.89 363C1467.78 354.647 1461.12 352.835 1459.32 345.961C1456.16 333.892 1459 317.488 1459 305L1459 251L1459 169M1572 272C1562.53 256.583 1552.72 241.379 1543.19 226C1536.97 215.957 1530.62 205.995 1524.32 196C1517.29 184.844 1511.04 172.478 1502.96 162.059C1500.05 158.31 1492.22 156.038 1491.53 163.019C1490.73 171.16 1503.05 184.321 1507.19 191C1522.73 216.079 1538.64 240.925 1554.19 266C1559.37 274.354 1564.54 282.781 1569.95 290.985C1572.12 294.264 1575.3 298.164 1579.77 296.242C1583.87 294.48 1583 288.589 1583 285L1583 252L1583 160C1583 150.454 1591.06 142.1 1588.57 133.001C1585.62 122.277 1568.38 122.277 1565.43 133.001C1563.07 141.612 1569.81 144.08 1571.68 151.09C1573.43 157.629 1572 166.246 1572 173L1572 213L1572 272z"/>
<path style="fill:#010101; stroke:none;" d="M382.148 130.032C375.75 133.682 381.432 143.63 387.852 139.968C394.25 136.318 388.568 126.37 382.148 130.032M152.148 132.032C145.75 135.682 151.432 145.63 157.852 141.968C164.25 138.318 158.568 128.37 152.148 132.032M320.148 132.032C313.75 135.682 319.432 145.63 325.852 141.968C332.25 138.318 326.568 128.37 320.148 132.032M1450.15 132.032C1443.75 135.682 1449.43 145.63 1455.85 141.968C1462.25 138.318 1456.57 128.37 1450.15 132.032M1574.15 132.032C1567.75 135.682 1573.43 145.63 1579.85 141.968C1586.25 138.318 1580.57 128.37 1574.15 132.032z"/>
<path style="fill:#ffffff; stroke:none;" d="M815.004 135.742C805.967 139.243 805.536 153.444 814.015 157.821C820.875 161.362 825.697 156.452 832 155.164C836.409 154.262 841.672 155.565 846 156.45C871.256 161.614 892.924 183.191 892.941 210C892.946 216.86 886.699 220.82 887.048 228C887.462 236.517 896.17 241.289 903.996 238.258C918.619 232.594 906.406 220.718 904.318 212.91C903 207.983 903.576 202.112 902.714 197C898.942 174.626 882.17 156.258 861 148.698C852.482 145.656 843.555 146.032 835.104 143.682C827.293 141.51 825.392 131.719 815.004 135.742M496 144C485.199 140.807 471.248 143 460 143L436 143C427.597 143 416.142 140.978 408.109 143.573C403.779 144.971 402.726 151.366 407.228 153.397C413.301 156.136 424.389 154 431 154C450.743 154 471.328 152.306 490.985 154.059C499.554 154.823 510.508 169.152 517.821 154.985C525.392 140.317 502.996 129.36 496 144M648 274C698.281 271.835 723.067 204.396 693.471 166C673.397 139.958 636.065 144 607 144C603.088 144 597.864 144.881 594.17 143.397C587.438 140.694 583.416 133.843 575.015 138.179C563.197 144.28 569.613 161.554 582 160.952C587.865 160.667 591.276 155.555 597 155.059C631.547 152.064 684.637 150.494 692.537 194C693.598 199.844 694.317 206.061 693.911 212C693.288 221.086 691.042 230.126 686.373 238C677.59 252.813 662.641 260.811 646 263.41C641.065 264.18 631.192 263.097 632.478 271.001C633.627 278.065 641.739 286.109 645.667 292C656.846 308.769 668.488 325.232 679.667 342C681.81 345.215 684.982 348.741 685.873 352.576C686.965 357.27 685.024 361.722 688.434 365.891C693.822 372.479 706.094 371.163 709.258 362.996C714.871 348.506 699.084 348.898 693.348 340.981C677.798 319.515 660.892 297.156 648 274z"/>
<path style="fill:#ff0e21; stroke:none;" d="M1267 139L1268 140L1267 139z"/>
<path style="fill:#010101; stroke:none;" d="M817.148 142.032C810.75 145.682 816.432 155.63 822.852 151.968C829.25 148.318 823.568 138.37 817.148 142.032z"/>
<path style="fill:#ff0e21; stroke:none;" d="M1274 142L1275 143L1274 142z"/>
<path style="fill:#010101; stroke:none;" d="M504.148 144.032C497.75 147.682 503.432 157.63 509.852 153.968C516.25 150.318 510.568 140.37 504.148 144.032M578.148 144.032C571.75 147.682 577.432 157.63 583.852 153.968C590.25 150.318 584.568 140.37 578.148 144.032z"/>
<path style="fill:#ffffff; stroke:none;" d="M990 254L990 287L990 326C990.002 330.393 989.525 337.38 995.961 336.713C1000.63 336.229 1000.94 331.758 1001 328C1001.13 318.671 1001 309.33 1001 300L1001 259C1001 255.079 1002.35 247.629 998.566 245.028C993.413 241.481 980.136 244 974 244L974 204L974 180C974 170.179 974.997 159.762 973.891 150.004C973.463 146.226 970.542 142.044 966.147 143.647C962.178 145.095 963.002 150.682 963 154L963 183L963 235C963 239.087 961.061 250.167 964.603 252.972C969.306 256.697 984.113 254 990 254M1600.43 144.029C1594.67 147.943 1600.36 157.787 1606.77 153.968C1613.53 149.941 1606.74 139.747 1600.43 144.029M290.055 144.617C283.263 146.311 286.333 156.817 292.942 155.623C299.648 154.412 297.243 142.823 290.055 144.617z"/>
<path style="fill:#ff0e21; stroke:none;" d="M1277 144L1278 145L1277 144z"/>
<path style="fill:#010101; stroke:none;" d="M1220 146L1220 176L1249 161L1249 160L1220 146z"/>
<path style="fill:#ffffff; stroke:none;" d="M990.004 147.742C984.466 149.887 982.522 155.484 983.11 161C983.667 166.228 988.426 168.392 989.682 173.09C992.811 184.793 990 200.873 990 213C990 217.535 988.49 230.208 996.942 227.353C1003.54 225.122 1001 211.37 1001 206C1001 195.678 999.579 184.199 1001.15 174C1002.14 167.522 1007.66 164.248 1006.89 157C1006.03 148.944 997.278 144.925 990.004 147.742z"/>
<path style="fill:#ff0e21; stroke:none;" d="M1285 148L1286 149L1285 148z"/>
<path style="fill:#010101; stroke:none;" d="M992.148 154.032C985.75 157.682 991.432 167.63 997.852 163.968C1004.25 160.318 998.568 150.37 992.148 154.032z"/>
<path style="fill:#ff0e21; stroke:none;" d="M1020 156L1021 157L1020 156z"/>
<path style="fill:#ffffff; stroke:none;" d="M1601.23 161.043C1597.02 163.47 1598 169.943 1598 174L1598 211L1598 301C1598 315.489 1600.05 331.689 1597.85 346C1597.09 350.92 1592.65 353.941 1592.11 359C1591.06 368.882 1600.52 376.709 1609.98 371.821C1623.16 365.021 1611.44 354.865 1609.32 346.91C1608.11 342.387 1609 336.659 1609 332L1609 203C1609 191.352 1609.35 179.643 1608.98 168.001C1608.85 163.889 1606.51 157.998 1601.23 161.043z"/>
<path style="fill:#ff0e21; stroke:none;" d="M1247 161L1248 162L1247 161z"/>
<path style="fill:#ffffff; stroke:none;" d="M283.213 162.758C277.037 165.34 274.965 180.225 272.997 186C265.272 208.671 257.811 231.567 249.424 254C247.728 258.537 238.932 278.084 250.96 275.638C257.784 274.25 259.707 259.547 261.808 254C270.652 230.648 278.436 206.691 286.333 183C287.663 179.01 295.75 157.516 283.213 162.758M822 166.514C809.31 167.311 795.445 166.718 784 173.174C760.327 186.529 758.465 217.423 775.3 236.999C791.506 255.844 819.384 263.363 841 274.248C848.247 277.897 857.94 282.324 861.682 290C863.203 293.12 862.223 296.725 863.603 299.772C864.668 302.122 867.465 303.196 869.892 302.353C874.033 300.914 874.185 295.636 873.906 292C873.101 281.522 865.109 275.047 857 269.667C835.353 255.306 807.542 250.482 788.004 232.826C777.856 223.657 771.121 208.103 778.05 195.001C791.117 170.292 839.962 172.564 857.699 190.301C865.655 198.257 862.766 206.062 866.742 214.852C867.937 217.492 871.067 218.45 873.772 217.677C882.829 215.092 874.053 192.635 871.034 188C861.192 172.888 839.498 165.415 822 166.514M574 179C596.91 179 626.025 174.235 648 181.22C664.566 186.485 669.476 204.644 665.522 220C659.512 243.336 638.541 237.68 621.005 241.344C617.099 242.16 612.84 246.594 616.604 250.397C619.842 253.668 628.781 252 633 252C652.865 251.999 672.98 243.724 676.714 222C677.734 216.064 678.434 210.013 677.714 204C672.9 163.748 634.049 168 603 168L576 168C572.844 168 568.088 167.179 565.318 169.028C562.263 171.066 563.001 175.85 563 179L563 208L563 329C563 334.656 564.036 341.488 562.683 347C560.71 355.039 550.326 366.96 564.004 372.258C573.864 376.077 582.573 367.966 580.772 358C579.888 353.114 574.926 350.756 574.148 345.961C571.33 328.595 574 308.61 574 291L574 179M416 180L450 180L488 180C492.111 179.998 499.598 180.436 498.458 174.05C497.132 166.628 483.27 169 478 169L432 169C425.229 169 416.557 167.564 410.019 169.434C400.851 172.055 405 198.246 405 206C405 209.509 403.985 215.682 407.434 217.968C411.342 220.558 415.257 216.751 415.852 212.995C417.514 202.508 416 190.623 416 180z"/>
<path style="fill:#ff0e21; stroke:none;" d="M1220 176L1221 177L1220 176M1266 181L1267 182L1266 181M1259 185L1260 186L1259 185M1250 190L1251 191L1250 190M1243 194L1244 195L1243 194z"/>
<path style="fill:#ffffff; stroke:none;" d="M793.318 197.029C790.534 198.862 790.904 203.104 791.04 206C791.546 216.767 799.704 224.468 808 230.279C828.999 244.986 854.688 251.216 876 265.356C886.104 272.059 895.741 281.749 892.236 295C884.56 324.027 840.038 325.803 818 314.627C809.642 310.388 807.317 302.95 800.61 297.743C798.238 295.901 794.727 295.841 792.757 298.319C785.103 307.942 806.442 322.084 813 325.215C833.677 335.088 868.132 336.009 887 321.471C891.728 317.827 896.147 313.196 899.12 308C925.553 261.795 853.85 243.352 826 227.421C817.866 222.769 808.095 217.649 803.573 209C801.845 205.696 802.975 201.315 800.972 198.318C799.404 195.97 795.621 195.512 793.318 197.029z"/>
<path style="fill:#ff0e21; stroke:none;" d="M1245 199L1246 200L1245 199M1256 205L1257 206L1256 205M1266 210L1267 211L1266 210z"/>
<path style="fill:#010101; stroke:none;" d="M1220 219L1220 248C1229.4 244.799 1241.71 239.822 1249 233L1220 219z"/>
<path style="fill:#ff0e21; stroke:none;" d="M1221 219L1222 220L1221 219z"/>
<path style="fill:#010101; stroke:none;" d="M896.148 222.032C889.75 225.682 895.432 235.63 901.852 231.968C908.25 228.318 902.568 218.37 896.148 222.032M476.148 230.032C469.75 233.682 475.432 243.63 481.852 239.968C488.25 236.318 482.568 226.37 476.148 230.032z"/>
<path style="fill:#ff0e21; stroke:none;" d="M1249 233L1250 234L1249 233z"/>
<path style="fill:#ffffff; stroke:none;" d="M591.148 242.747C582.343 246.543 596.221 261.831 599 266C611.703 285.054 624.632 303.948 637.333 323C640.435 327.652 646.362 341.584 653.772 338.392C662.539 334.616 648.745 319.118 646 315L608 258C604.712 253.069 598.931 239.391 591.148 242.747M1477.32 245.032C1472.81 247.965 1475 260.315 1475 265L1475 323C1475 327.394 1473.4 344.189 1482.77 338.806C1488.17 335.706 1486 324.198 1486 319L1486 259C1486 254.607 1486.39 239.135 1477.32 245.032z"/>
<path style="fill:#ff0e21; stroke:none;" d="M1221 247L1222 248L1221 247z"/>
<path style="fill:#ffffff; stroke:none;" d="M396 355C427.281 355 459.849 352.359 491 355.059C496.724 355.555 500.135 360.667 506 360.952C515.081 361.394 521 353.863 518.566 345.001C516.581 337.772 507.429 334.936 501.015 338.178C498.053 339.675 496.202 342.802 492.91 343.682C482.353 346.505 467.934 344 457 344L390 344L390 267L431 267C440.627 267 455.938 264.068 464.91 267.603C468.147 268.879 469.931 272.247 473.015 273.821C486.505 280.707 498.514 261.021 485.956 252.742C477.45 247.135 471.757 255.878 463.91 256.031C443.627 256.427 423.288 256 403 256C397.254 256 384.972 253.724 380.742 258.514C377.08 262.661 379 272.837 379 278L379 330C379 335.478 380.25 342.786 378.4 348C376.07 354.57 370.212 359.3 374.179 366.985C381.817 381.781 400.163 369.084 396 355z"/>
<path style="fill:#ff0e21; stroke:none;" d="M1275.67 251.333L1276.33 251.667L1275.67 251.333z"/>
<path style="fill:#010101; stroke:none;" d="M476.148 258.032C469.75 261.682 475.432 271.63 481.852 267.968C488.25 264.318 482.568 254.37 476.148 258.032z"/>
<path style="fill:#ff0e21; stroke:none;" d="M1264 257L1265 258L1264 257z"/>
<path style="fill:#ffffff; stroke:none;" d="M835 354C841.826 374.023 869.471 355.928 855.772 342.228C847.803 334.259 841.007 343.109 833 343.763C825.008 344.416 815.152 340.935 808 337.688C789.524 329.298 771.693 308.554 773.073 287.015C773.572 279.224 782.088 276.184 779.566 267.001C777.382 259.046 766.307 256.365 760.109 261.434C749.791 269.872 761.489 279.006 761.985 288C763.603 317.372 781.778 341.613 810 350.656C817.353 353.012 827.408 356.087 835 354z"/>
<path style="fill:#010101; stroke:none;" d="M765.148 266.032C758.75 269.682 764.432 279.63 770.852 275.968C777.25 272.318 771.568 262.37 765.148 266.032z"/>
<path style="fill:#ff0e21; stroke:none;" d="M1242 268L1243 269L1242 268z"/>
<path style="fill:#ffffff; stroke:none;" d="M965.318 272.029C960.2 275.399 963 292.484 963 298C963 313.45 965.2 330.741 962.852 346C961.855 352.478 956.338 355.752 957.11 363C958.034 371.682 968.767 375.997 975.956 371.258C980.755 368.094 982.286 361.279 980.258 356.004C978.92 352.525 975.286 350.532 974.318 346.91C969.656 329.474 974 305.093 974 287C974 282.487 974.912 265.711 965.318 272.029z"/>
<path style="fill:#ff0e21; stroke:none;" d="M1234 272L1235 273L1234 272M1232 273L1233 274L1232 273M1231 274L1232 275L1231 274z"/>
<path style="fill:#ffffff; stroke:none;" d="M416 318C416 306.883 417.165 295.056 415.891 284.015C415.419 279.921 411.49 276.319 407.318 279.032C402.109 282.418 405 300.387 405 306C405 311.361 402.962 322.088 406.028 326.682C408.321 330.118 414.48 329 418 329L451 329C456.696 329 477.946 332.123 480.377 325.853C482.116 321.368 477.842 318.541 473.999 318.109C464.237 317.01 453.825 318 444 318L416 318M791.228 280.032C784.598 283.989 791.342 293.986 797.566 289.817C803.348 285.945 797.559 276.254 791.228 280.032z"/>
<path style="fill:#ff0e21; stroke:none;" d="M1215 284L1215 310L1216 310L1215 284z"/>
<path style="fill:#ffffff; stroke:none;" d="M593.058 290.786C586.449 293.116 589 306.552 589 312C589 323.301 590.531 335.828 588.853 347C587.901 353.333 582.954 356.952 584.228 364C585.589 371.524 594.208 374.887 600.996 372.258C606.805 370.008 608.811 363.748 607.772 358C606.841 352.855 601.575 350.764 600.318 345.961C597.234 334.18 600 318.188 600 306C600 301.38 601.796 287.705 593.058 290.786z"/>
<path style="fill:#ff0e21; stroke:none;" d="M1214 313L1215 314L1214 313z"/>
<path style="fill:#ffffff; stroke:none;" d="M489.229 319.029C482.831 322.92 489.797 331.899 495.566 327.971C501.256 324.098 495.215 315.388 489.229 319.029z"/>
<path style="fill:#ff0e21; stroke:none;" d="M1209 332L1210 333L1209 332M1208 336L1209 337L1208 336M1060 341L1061 342L1060 341z"/>
<path style="fill:#ffffff; stroke:none;" d="M657.434 343.029C651.323 347.201 658.739 355.951 664.566 351.971C670.677 347.799 663.261 339.049 657.434 343.029M993.133 342.786C985.99 345.42 990.781 356.328 997.852 353.392C1004.18 350.764 999.59 340.406 993.133 342.786z"/>
<path style="fill:#ff0e21; stroke:none;" d="M1206.33 342.667L1206.67 343.333L1206.33 342.667z"/>
<path style="fill:#010101; stroke:none;" d="M504.148 344.032C497.75 347.682 503.432 357.63 509.852 353.968C516.25 350.318 510.568 340.37 504.148 344.032M844.148 346.032C837.75 349.682 843.432 359.63 849.852 355.968C856.25 352.318 850.568 342.37 844.148 346.032z"/>
<path style="fill:#ff0e21; stroke:none;" d="M1050 348L1051 349L1050 348M1064 350L1065 351L1064 350M1412 351L1413 352L1412 351z"/>
<path style="fill:#010101; stroke:none;" d="M695.148 353.032C688.75 356.682 694.432 366.63 700.852 362.968C707.25 359.318 701.568 349.37 695.148 353.032M248.148 356.032C241.75 359.682 247.432 369.63 253.852 365.968C260.25 362.318 254.568 352.37 248.148 356.032M382.148 356.032C375.75 359.682 381.432 369.63 387.852 365.968C394.25 362.318 388.568 352.37 382.148 356.032M566.148 356.032C559.75 359.682 565.432 369.63 571.852 365.968C578.25 362.318 572.568 352.37 566.148 356.032M593.148 356.032C586.75 359.682 592.432 369.63 598.852 365.968C605.25 362.318 599.568 352.37 593.148 356.032M966.148 356.032C959.75 359.682 965.432 369.63 971.852 365.968C978.25 362.318 972.568 352.37 966.148 356.032z"/>
<path style="fill:#ff0e21; stroke:none;" d="M1040 355L1041 356L1040 355M1203 355L1204 356L1203 355z"/>
<path style="fill:#010101; stroke:none;" d="M1452.15 356.032C1445.75 359.682 1451.43 369.63 1457.85 365.968C1464.25 362.318 1458.57 352.37 1452.15 356.032M1601.15 356.032C1594.75 359.682 1600.43 369.63 1606.85 365.968C1613.25 362.318 1607.57 352.37 1601.15 356.032z"/>
<path style="fill:#ff0e21; stroke:none;" d="M1054 357L1055 358L1054 357M1202 359L1203 360L1202 359M1409 359L1410 360L1409 359M1398 361L1399 362L1398 361M1030 362L1031 363L1030 362M1044 364L1045 365L1044 364z"/>
<path style="fill:#010101; stroke:none;" d="M1016.15 370.032C1009.75 373.682 1015.43 383.63 1021.85 379.968C1028.25 376.318 1022.57 366.37 1016.15 370.032z"/>
<path style="fill:#ff0e21; stroke:none;" d="M1395 369L1396 370L1395 369M1034 371L1035 372L1034 371M1410 371L1411 372L1410 371z"/>
<path style="fill:#010101; stroke:none;" d="M1426.15 380.032C1419.75 383.682 1425.43 393.63 1431.85 389.968C1438.25 386.318 1432.57 376.37 1426.15 380.032z"/>
<path style="fill:#ff1747; stroke:none;" d="M506 399.468C476.296 405.06 486.652 447.922 516 442.671C544.12 437.638 533.644 394.263 506 399.468M648 399.468C618.296 405.06 628.652 447.922 658 442.671C686.12 437.638 675.644 394.263 648 399.468M819 430C812.792 432.556 806.877 436.895 800.04 433.312C788.473 427.249 791.604 410.237 804 407.548C809.285 406.401 814.091 409.597 819 411C818.982 387.949 782.245 400.871 782.18 421C782.111 442.385 818.997 454.376 819 430M846 399.468C815.693 405.137 826.264 449.076 856 442.61C883.722 436.581 873.323 394.357 846 399.468M331 400L331 442L341 442L341 400L331 400M353 400L353 442C361.751 442 373.056 443.925 380.999 439.583C393.136 432.948 394.364 411.92 382.957 403.853C374.667 397.991 362.57 400 353 400M400 400L400 442L426 442L426 434L410 434L410 424L426 424L426 416L410 416L410 408L426 408L426 400L400 400M458 400L458 442L463 442L463 422L480 422L480 416L463 416L463 405L480 405L480 400L458 400M544 400L544 442L549 442L549 423C555.555 430.575 559.897 441.869 571 442L556 422C566.231 421.753 572.543 410.11 563.775 402.434C559.01 398.261 549.887 400 544 400M593 400L606.005 423L607 442L613 442L613.699 423L627 400C617.386 400.114 613.701 409.081 610 417C605.238 409.804 602.681 400.115 593 400M685 400C685 410.702 681.939 427.497 687.857 436.981C693.477 445.987 711.644 445.491 716.543 435.985C721.22 426.91 718 410.066 718 400L713 400C713 409.573 715.399 423.099 711.181 431.957C707.978 438.684 698.28 439.876 693.703 433.867C687.785 426.095 691 409.282 691 400L685 400M731 400L731 442L736 442L736 423C742.555 430.575 746.897 441.869 758 442L743 422C753.231 421.753 759.543 410.11 750.775 402.434C746.01 398.261 736.887 400 731 400M882 400L882 442C890.751 442 902.056 443.925 909.999 439.583C922.136 432.948 923.364 411.92 911.957 403.853C903.667 397.991 891.57 400 882 400M929 400L929 442L955 442L955 434L939 434L939 424L955 424L955 416L939 416L939 408L955 408L955 400L929 400z"/>
<path style="fill:#010101; stroke:none;" d="M508 404.508C487.476 407.546 491.164 440.396 512 437.681C533.537 434.876 529.272 401.359 508 404.508M650 404.508C629.476 407.546 633.164 440.396 654 437.681C675.537 434.876 671.272 401.359 650 404.508M549 405L549 418C564.565 417.957 564.562 405.01 549 405M736 405L736 418C751.565 417.957 751.562 405.01 736 405M363 408L363 434C367.302 434 372.131 434.509 375.891 431.991C382.2 427.766 382.245 415.689 376.606 410.854C372.846 407.631 367.621 408.003 363 408M846.004 408.653C831.159 413.346 837.692 438.588 853 434.181C869.218 429.513 862.519 403.432 846.004 408.653M892 408L892 434C896.302 434 901.131 434.509 904.891 431.991C911.2 427.766 911.245 415.689 905.606 410.854C901.846 407.631 896.621 408.003 892 408z"/>
<path style="fill:#ff0e21; stroke:none;" d="M1082 422L1083 423L1082 422M1328 436L1329 437L1328 436z"/>
<path style="fill:#010101; stroke:none;" d="M1396.15 437.032C1389.75 440.682 1395.43 450.63 1401.85 446.968C1408.25 443.318 1402.57 433.37 1396.15 437.032z"/>
<path style="fill:#ff0e21; stroke:none;" d="M1321 449L1322 450L1321 449M1316 451L1317 452L1316 451M1364 452L1365 453L1364 452M1362 453L1363 454L1362 453M1380 455L1381 456L1380 455M1346 461L1347 462L1346 461M1306 462L1307 463L1306 462M1300 475L1301 476L1300 475M1363 478L1364 479L1363 478M1288 480L1289 481L1288 480z"/>
<path style="fill:#010101; stroke:none;" d="M1102.15 489.032C1095.75 492.682 1101.43 502.63 1107.85 498.968C1114.25 495.318 1108.57 485.37 1102.15 489.032M1364.15 495.032C1357.75 498.682 1363.43 508.63 1369.85 504.968C1376.25 501.318 1370.57 491.37 1364.15 495.032M1256.15 501.032C1249.75 504.682 1255.43 514.63 1261.85 510.968C1268.25 507.318 1262.57 497.37 1256.15 501.032z"/>
</svg>
